Coordinates
version=1
nRows=26
nColumns=22
inDegrees=yes

Units are S.I. units (second, meters, Newtons, ...)
If the header above contains a line with 'inDegrees', this indicates whether rotational values are in degrees (yes) or radians (no).

endheader
time	pelvis_tilt	pelvis_list	pelvis_rotation	pelvis_tx	pelvis_ty	pelvis_tz	hip_flexion_r	hip_adduction_r	hip_rotation_r	knee_angle_r	ankle_angle_r	subtalar_angle_r	hip_flexion_l	hip_adduction_l	hip_rotation_l	knee_angle_l	ankle_angle_l	subtalar_angle_l	lumbar_extension	lumbar_bending	lumbar_rotation
      3.97000000	      2.37491927	      2.06422317	    171.84790239	      0.42550728	      0.98281072	     -0.00306515	      2.39483059	      6.11374633	     -2.31375848	    -25.67478599	     21.82887046	      0.65438810	     26.65650187	     -4.17510931	     -1.50391609	    -12.02733694	      4.97090491	      5.74537794	    -15.50290123	      1.27942902	      9.81252808
      3.98000000	      2.39743501	      2.14167421	    171.97640360	      0.43229940	      0.98389641	     -0.00370665	      2.57583616	      6.30561781	     -2.50409872	    -25.17964398	     21.57395936	      0.34032127	     26.73207603	     -4.33139259	     -2.29749420	    -12.87850525	      4.86144573	      5.54501449	    -15.46751496	      1.37141515	      9.65078223
      3.99000000	      2.38992393	      2.20794569	    172.11007225	      0.43884467	      0.98520928	     -0.00430145	      2.69383989	      6.47602776	     -2.69692548	    -24.64430175	     21.25787447	      0.09931436	     26.74298560	     -4.46271087	     -2.94444435	    -13.82127281	      4.74372293	      5.31506197	    -15.45305870	      1.44592482	      9.47492711
      4.00000000	      2.35435203	      2.25509050	    172.24195659	      0.44515197	      0.98673182	     -0.00484751	      2.74717615	      6.61736690	     -2.87547309	    -24.06046666	     20.89097927	     -0.01434408	     26.69175953	     -4.56050632	     -3.45783748	    -14.84387620	      4.62362314	      5.10613289	    -15.45776708	      1.49603711	      9.29759621
      4.01000000	      2.29930831	      2.26875414	    172.36124213	      0.45127968	      0.98839970	     -0.00531518	      2.77666708	      6.70725931	     -3.05692622	    -23.48245363	     20.49805447	     -0.06633375	     26.60001046	     -4.61241052	     -3.86330290	    -15.94775522	      4.47470123	      4.89854593	    -15.47831493	      1.50841447	      9.14790472
      4.02000000	      2.23999432	      2.27326992	    172.46700146	      0.45718140	      0.99016126	     -0.00575287	      2.75743546	      6.78864919	     -3.17503353	    -22.84760189	     20.09992998	     -0.08296604	     26.46838599	     -4.64469790	     -4.14012973	    -17.09767611	      4.35847904	      4.61744847	    -15.48829898	      1.50919618	      9.00412209
      4.03000000	      2.17186299	      2.25321629	    172.53906501	      0.46290400	      0.99196954	     -0.00611832	      2.72260757	      6.82988699	     -3.26099781	    -22.22264595	     19.72668372	     -0.00053634	     26.29281607	     -4.64453464	     -4.31487003	    -18.28064803	      4.28025320	      4.34285879	    -15.50068204	      1.48579581	      8.89660150
      4.04000000	      2.10679269	      2.22884767	    172.56959989	      0.46849001	      0.99375807	     -0.00644447	      2.69460913	      6.85417417	     -3.32395513	    -21.62804912	     19.36456170	      0.16325875	     26.09452482	     -4.64075012	     -4.39577249	    -19.50103765	      4.26024106	      4.14768336	    -15.50791769	      1.45896140	      8.85299521
      4.05000000	      2.04795643	      2.21531654	    172.57107256	      0.47390106	      0.99549620	     -0.00671461	      2.64435987	      6.88484255	     -3.32700783	    -21.01201067	     19.05163812	      0.45179085	     25.86626485	     -4.63848306	     -4.35888394	    -20.73163122	      4.32829530	      3.93189457	    -15.49928204	      1.45190072	      8.83923430
      4.06000000	      1.99363573	      2.18360174	    172.53931525	      0.47917093	      0.99714373	     -0.00693759	      2.60663940	      6.88418248	     -3.30008815	    -20.43826736	     18.83178291	      0.96479216	     25.61090504	     -4.61286727	     -4.24940051	    -21.96410866	      4.43448789	      3.67296650	    -15.47453126	      1.42587665	      8.84548216
      4.07000000	      1.96197791	      2.19448893	    172.47263832	      0.48435286	      0.99862781	     -0.00713209	      2.59414668	      6.92658015	     -3.25623325	    -19.89488617	     18.62460968	      1.28154267	     25.37501213	     -4.63682417	     -4.09269130	    -23.24862637	      4.64732378	      3.56396370	    -15.42940837	      1.45436060	      8.92157659
      4.08000000	      1.94833304	      2.19314505	    172.39008772	      0.48939668	      0.99996628	     -0.00725365	      2.60147804	      6.94659689	     -3.19161639	    -19.37815509	     18.51344674	      1.98002589	     25.12954819	     -4.63863883	     -3.88407287	    -24.51980202	      4.87349945	      3.36780012	    -15.35235633	      1.48004551	      8.99574821
      4.09000000	      1.94400514	      2.22203586	    172.28604599	      0.49434481	      1.00112325	     -0.00734497	      2.62606192	      6.99666329	     -3.11629709	    -18.90188700	     18.46034117	      2.54924689	     24.88825706	     -4.67592148	     -3.66536813	    -25.82173934	      5.19584511	      3.22194724	    -15.26540470	      1.54396495	      9.10111204
      4.10000000	      1.95105297	      2.28541297	    172.17153804	      0.49916572	      1.00211481	     -0.00740468	      2.65355230	      7.08486934	     -3.02165937	    -18.43709229	     18.41263957	      3.03283629	     24.64389935	     -4.75062147	     -3.43506205	    -27.13059329	      5.58114905	      3.10250790	    -15.16194534	      1.65309002	      9.23127616
      4.11000000	      1.96776032	      2.34138784	    172.04736400	      0.50390726	      1.00291487	     -0.00740949	      2.73104634	      7.15768964	     -2.92678407	    -18.06620755	     18.50306869	      3.71667606	     24.40066380	     -4.82080579	     -3.21944159	    -28.43720045	      6.01954321	      2.94604911	    -15.04694342	      1.76197437	      9.33412498
      4.12000000	      1.98744101	      2.43679176	    171.91941074	      0.50851965	      1.00357984	     -0.00740120	      2.80459967	      7.27563346	     -2.81161719	    -17.70724231	     18.54923329	      4.25872006	     24.14369960	     -4.93846847	     -3.01633835	    -29.73415115	      6.50178628	      2.82025215	    -14.92789869	      1.91917750	      9.44008948
      4.13000000	      2.01427512	      2.52020505	    171.78982959	      0.51300953	      1.00409247	     -0.00734953	      2.92309746	      7.37276363	     -2.72104817	    -17.43580375	     18.70812563	      4.91555054	     23.86892243	     -5.04320104	     -2.82136622	    -30.98639266	      7.01562850	      2.67364141	    -14.79113228	      2.06455476	      9.54398018
      4.14000000	      2.04034173	      2.62504570	    171.66286179	      0.51735585	      1.00450258	     -0.00726855	      3.04934430	      7.49154689	     -2.62874053	    -17.19893690	     18.83769025	      5.48628108	     23.57037847	     -5.17472070	     -2.65564142	    -32.19657594	      7.55053020	      2.53784843	    -14.65103561	      2.24024597	      9.63207931
      4.15000000	      2.06172939	      2.73731325	    171.54046489	      0.52158881	      1.00482483	     -0.00715602	      3.20435561	      7.61400056	     -2.54711698	    -17.04035057	     18.96504134	      6.04354853	     23.24014167	     -5.31488191	     -2.51771688	    -33.33977126	      8.10484878	      2.39230706	    -14.51604302	      2.42548072	      9.69322523
      4.16000000	      2.07560997	      2.85330378	    171.42620939	      0.52568707	      1.00508354	     -0.00700128	      3.37693705	      7.73742407	     -2.47558997	    -16.94155916	     19.07352617	      6.52589704	     22.87098950	     -5.45694723	     -2.41042267	    -34.39526859	      8.67353586	      2.24106999	    -14.38533946	      2.61723399	      9.73489924
      4.17000000	      2.07599657	      2.98117817	    171.32585070	      0.52965018	      1.00531167	     -0.00681302	      3.54975292	      7.87565345	     -2.39739173	    -16.88249854	     19.12753601	      6.82138199	     22.45458316	     -5.60942233	     -2.34073134	    -35.34568883	      9.24813000	      2.11554586	    -14.26835308	      2.82409241	      9.74292282
      4.18000000	      2.07640985	      3.08426936	    171.23800456	      0.53346988	      1.00549393	     -0.00657983	      3.75595638	      7.98579312	     -2.34477798	    -16.88994014	     19.17835255	      7.11102147	     22.00081507	     -5.73579444	     -2.32548212	    -36.16136604	      9.83003039	      1.95717408	    -14.14015786	      3.00390482	      9.71501000
      4.19000000	      2.06766096	      3.16300945	    171.16654816	      0.53714916	      1.00566141	     -0.00629261	      3.97905879	      8.07117827	     -2.30508315	    -16.94937535	     19.19486211	      7.28367589	     21.49952358	     -5.83356511	     -2.36702791	    -36.82814382	     10.41505084	      1.79820212	    -14.01399319	      3.15923357	      9.64486607
      4.20000000	      2.05199483	      3.21747742	    171.11356712	      0.54070069	      1.00581795	     -0.00595723	      4.21715016	      8.13597318	     -2.26091204	    -17.05174318	     19.17526724	      7.32402293	     20.95574889	     -5.90291419	     -2.45915084	    -37.33915271	     10.99428226	      1.65671011	    -13.89009900	      3.28943176	      9.53261459
      4.21000000	      2.02953396	      3.24919327	    171.08108109	      0.54414015	      1.00596492	     -0.00559117	      4.46623414	      8.18457678	     -2.20186836	    -17.18765047	     19.12108339	      7.24789100	     20.37626231	     -5.94802666	     -2.60257669	    -37.69773517	     11.56537048	      1.52881039	    -13.77162372	      3.39096749	      9.37787625
      4.22000000	      2.01859751	      3.24393326	    171.07852239	      0.54743169	      1.00609035	     -0.00516365	      4.74534129	      8.19878785	     -2.16559200	    -17.35483182	     19.03631194	      7.13526885	     19.77287201	     -5.94899146	     -2.78241600	    -37.87885912	     12.11428579	      1.46520490	    -13.62772719	      3.45779769	      9.16444225
